<?xml version="1.0" encoding="utf-8"?>
<!-- Generator: Adobe Illustrator 17.0.0, SVG Export Plug-In . SVG Version: 6.00 Build 0)  -->
<!DOCTYPE svg PUBLIC "-//W3C//DTD SVG 1.1//EN" "http://www.w3.org/Graphics/SVG/1.1/DTD/svg11.dtd">
<svg version="1.1" id="Calque_1" xmlns="http://www.w3.org/2000/svg" xmlns:xlink="http://www.w3.org/1999/xlink" x="0px" y="0px"
	 width="10px" height="10px" viewBox="0 0 10 10" enable-background="new 0 0 10 10" xml:space="preserve">
<g id="Captions">
</g>
<g id="Your_Icon">
	<path fill="#FFFFFF" d="M4.092,2.811c0,0.084,0.03,0.157,0.07,0.226V2.583C4.122,2.651,4.092,2.726,4.092,2.811z"/>
	<path fill="#FFFFFF" d="M3.001,3.273c0.258,0,0.468-0.208,0.468-0.461c0-0.254-0.21-0.463-0.468-0.463
		c-0.259,0-0.466,0.209-0.466,0.463C2.534,3.064,2.742,3.273,3.001,3.273z"/>
	<path fill="#FFFFFF" d="M1.442,3.273c0.258,0,0.467-0.208,0.467-0.461c0-0.254-0.209-0.463-0.467-0.463
		c-0.257,0-0.466,0.209-0.466,0.463C0.975,3.064,1.184,3.273,1.442,3.273z"/>
	<path fill="#FFFFFF" d="M4.163,3.037v0.969h0.071V3.138C4.204,3.11,4.184,3.074,4.163,3.037z"/>
	<path fill="#FFFFFF" d="M3.001,2.349c0.258,0,0.468,0.209,0.468,0.463c0,0.253-0.21,0.461-0.468,0.461
		c-0.259,0-0.466-0.208-0.466-0.461C2.534,2.557,2.742,2.349,3.001,2.349z"/>
	<path fill="#FFFFFF" d="M1.442,2.349c0.258,0,0.467,0.209,0.467,0.463c0,0.253-0.209,0.461-0.467,0.461
		c-0.257,0-0.466-0.208-0.466-0.461C0.975,2.557,1.184,2.349,1.442,2.349z"/>
	<path fill="#FFFFFF" d="M1.442,3.273c0.258,0,0.467-0.208,0.467-0.461c0-0.254-0.209-0.463-0.467-0.463
		c-0.257,0-0.466,0.209-0.466,0.463C0.975,3.064,1.184,3.273,1.442,3.273z"/>
	<path fill="#FFFFFF" d="M8.687,5.875V9.25h-7.75V4h3.25V1.625H0.902c-0.499,0-0.965,0.449-0.965,0.942V10h9.75V5.875H8.687z"/>
	<g>
		<path fill="#FFFFFF" d="M9.755,1.954H8.044V0.243C8.044,0.018,7.861,0,7.635,0C7.411,0,7.227,0.018,7.227,0.243v1.711H5.517
			c-0.226,0-0.246,0.183-0.246,0.407c0,0.226,0.02,0.408,0.246,0.408h1.711v1.71c0,0.225,0.183,0.244,0.408,0.244
			c0.226,0,0.408-0.019,0.408-0.244v-1.71h1.711C9.98,2.769,10,2.587,10,2.361C10,2.138,9.98,1.954,9.755,1.954z"/>
	</g>
</g>
</svg>
