<?xml version="1.0" encoding="utf-8"?>
<!-- Generator: Adobe Illustrator 17.0.0, SVG Export Plug-In . SVG Version: 6.00 Build 0)  -->
<!DOCTYPE svg PUBLIC "-//W3C//DTD SVG 1.1//EN" "http://www.w3.org/Graphics/SVG/1.1/DTD/svg11.dtd">
<svg version="1.1" id="Your_Icon" xmlns="http://www.w3.org/2000/svg" xmlns:xlink="http://www.w3.org/1999/xlink" x="0px" y="0px"
	 width="10px" height="10px" viewBox="0 0 10 10" enable-background="new 0 0 10 10" xml:space="preserve">
<g>
	<path fill="#FFFFFF" d="M5.316,4.928c0,0.322-0.26,0.582-0.581,0.582c-0.322,0-0.582-0.26-0.582-0.582
		c0-0.321,0.26-0.581,0.582-0.581C5.056,4.347,5.316,4.607,5.316,4.928z"/>
	<path fill="#FFFFFF" d="M3.405,7.313h5.038l0,0l0,0V5.785L7.776,4.576L6.871,6.532L6.337,5.71c0,0-0.747,0.698-1.534,1.247
		L4.205,6.682L3.405,7.313z"/>
	<path fill="#FFFFFF" d="M8.625,2.673V2.07V1.465V0.861H1.375H0.167V2.07V5.09v0.604v0.604h1.812v2.417h7.854V2.673H8.625z
		 M1.979,5.366H1.1V1.794h6.592v0.88H1.979V5.366z M8.9,7.782H2.912V3.606H8.9V7.782z"/>
</g>
</svg>
