<?xml version="1.0" encoding="utf-8"?>
<!-- Generator: Adobe Illustrator 17.0.0, SVG Export Plug-In . SVG Version: 6.00 Build 0)  -->
<!DOCTYPE svg PUBLIC "-//W3C//DTD SVG 1.1//EN" "http://www.w3.org/Graphics/SVG/1.1/DTD/svg11.dtd">
<svg version="1.1" id="Layer_1" xmlns="http://www.w3.org/2000/svg" xmlns:xlink="http://www.w3.org/1999/xlink" x="0px" y="0px"
	 width="43.121px" height="44.344px" viewBox="0 0 43.121 44.344" enable-background="new 0 0 43.121 44.344" xml:space="preserve">
<polygon fill="#FFFDFD" points="24.634,5.552 21.435,5.552 21.383,5.552 18.184,5.552 16.243,12.401 26.574,12.401 "/>
<polygon fill="#FFFDFD" points="4.286,22.865 4.998,25.984 5.01,26.034 5.722,29.153 12.804,29.527 10.505,19.455 "/>
<polygon fill="#FFFDFD" points="11.203,36.026 14.085,37.413 14.132,37.436 17.015,38.824 21.722,33.519 12.414,29.038 "/>
<polygon fill="#FFFDFD" points="25.805,38.823 28.687,37.435 28.735,37.412 31.616,36.024 30.404,29.037 21.097,33.519 "/>
<polygon fill="#FFFDFD" points="37.097,29.151 37.808,26.032 37.82,25.981 38.531,22.862 32.312,19.453 30.014,29.525 "/>
<polygon fill="#FFFDFD" points="36.574,14.292 34.579,11.791 34.546,11.75 32.552,9.25 26.009,11.987 32.451,20.063 "/>
<polygon fill="#FFFDFD" points="10.264,9.252 8.269,11.752 8.236,11.794 6.242,14.294 10.366,20.065 16.807,11.988 "/>
<path fill="#FFFDFD" d="M21.409,9.238c-7.194,0-13.026,5.832-13.026,13.026S14.214,35.29,21.409,35.29
	c7.194,0,13.026-5.832,13.026-13.026S28.603,9.238,21.409,9.238z M21.409,27.494c-2.889,0-5.23-2.341-5.23-5.23
	s2.342-5.23,5.23-5.23s5.23,2.341,5.23,5.23S24.297,27.494,21.409,27.494z"/>
</svg>
