<?xml version="1.0" encoding="utf-8"?>
<!-- Generator: Adobe Illustrator 17.0.0, SVG Export Plug-In . SVG Version: 6.00 Build 0)  -->
<!DOCTYPE svg PUBLIC "-//W3C//DTD SVG 1.1//EN" "http://www.w3.org/Graphics/SVG/1.1/DTD/svg11.dtd">
<svg version="1.1" id="Layer_1" xmlns="http://www.w3.org/2000/svg" xmlns:xlink="http://www.w3.org/1999/xlink" x="0px" y="0px"
	 width="44.5px" height="44.5px" viewBox="0 0 44.5 44.5" enable-background="new 0 0 44.5 44.5" xml:space="preserve">
<rect x="31.588" y="21.155" fill="#800000018000000180000001" width="7.731" height="1.136"/>
<rect x="30.666" y="17.882" fill="#800000018000000180000001" width="8.703" height="1.292"/>
<rect x="7.427" y="22.526" fill="#800000018000000180000001" width="13.647" height="2.335"/>
<rect x="7.326" y="17.546" fill="#800000018000000180000001" width="15.855" height="2.335"/>
<path fill="#800000018000000180000001" d="M28.953,26.125c1.486,0.911,3.344,1.459,5.369,1.459c0.833,0,2.514-0.174,3.278-0.346
	l2.95,2.069l-0.016-3.76c1.593-1.262,2.579-3.005,2.579-4.931c0-3.849-3.936-6.969-8.791-6.969c-2.408,0-4.588,0.768-6.175,2.011
	c1.246,1.737,1.96,3.744,1.96,5.885C30.106,23.165,29.695,24.713,28.953,26.125z"/>
<path fill="#800000018000000180000001" d="M34.321,12.695c-2.637,0-5.026,0.827-6.793,2.166c0.219,0.257,0.424,0.523,0.618,0.794
	c1.588-1.243,3.767-2.011,6.175-2.011c4.856,0,8.791,3.12,8.791,6.969c0,1.926-0.985,3.67-2.579,4.931l0.016,3.76l-2.95-2.069
	c-0.765,0.173-2.444,0.346-3.278,0.346c-2.024,0-3.883-0.548-5.369-1.459c-0.121,0.23-0.251,0.455-0.389,0.678
	c1.62,0.93,3.604,1.485,5.757,1.485c0.933,0,1.834-0.104,2.69-0.297l4.26,2.603v-4.585c1.782-1.411,2.884-3.362,2.884-5.516
	C44.155,16.186,39.753,12.695,34.321,12.695z"/>
<path fill="#800000018000000180000001" d="M30.106,21.54c0-2.141-0.714-4.148-1.96-5.885c-0.194-0.271-0.398-0.537-0.618-0.794
	c-2.706-3.17-7.284-5.254-12.476-5.254C6.739,9.608,0,14.95,0,21.54c0,3.297,1.687,6.282,4.415,8.442V37l6.52-3.983
	c1.31,0.294,2.689,0.455,4.117,0.455c5.93,0,11.057-2.719,13.511-6.67c0.138-0.223,0.269-0.448,0.389-0.678
	C29.695,24.713,30.106,23.165,30.106,21.54z M15.052,32.394c-1.276,0-3.847-0.267-5.017-0.53L5.52,35.029l0.024-5.754
	c-2.438-1.931-3.947-4.599-3.947-7.547c0-5.891,6.025-10.666,13.456-10.666c4.737,0,8.901,1.943,11.298,4.876
	c0.225,0.275,0.434,0.559,0.627,0.85c0.976,1.477,1.531,3.157,1.531,4.94c0,1.231-0.266,2.412-0.75,3.513
	c-0.115,0.261-0.243,0.52-0.382,0.771C25.294,29.768,20.562,32.394,15.052,32.394z"/>
</svg>
