<?xml version="1.0" encoding="utf-8"?>
<!-- Generator: Adobe Illustrator 17.0.0, SVG Export Plug-In . SVG Version: 6.00 Build 0)  -->
<!DOCTYPE svg PUBLIC "-//W3C//DTD SVG 1.1//EN" "http://www.w3.org/Graphics/SVG/1.1/DTD/svg11.dtd">
<svg version="1.1" id="Your_Icon" xmlns="http://www.w3.org/2000/svg" xmlns:xlink="http://www.w3.org/1999/xlink" x="0px" y="0px"
	 width="18.5px" height="18.5px" viewBox="0 0 18.5 18.5" enable-background="new 0 0 18.5 18.5" xml:space="preserve">
<g>
	<path fill="#FF4A51" d="M9.502,16.495c-3.859,0-6.998-3.139-6.998-6.997c0-3.859,3.139-6.998,6.998-6.998S16.5,5.639,16.5,9.498
		C16.5,13.356,13.361,16.495,9.502,16.495z M9.502,4.055c-3.001,0-5.443,2.442-5.443,5.443s2.442,5.442,5.443,5.442
		s5.443-2.442,5.443-5.442C14.945,6.496,12.503,4.055,9.502,4.055z"/>
</g>
<path fill="#FF4A51" d="M9.502,12.152c0.43,0,0.778,0.348,0.778,0.777c0,0.429-0.348,0.777-0.778,0.777
	c-0.429,0-0.777-0.348-0.777-0.777C8.725,12.5,9.073,12.152,9.502,12.152z"/>
<g>
	<path fill="#FF4A51" d="M9.502,11.574c-0.429,0-0.777-0.348-0.777-0.777V6.111c0-0.43,0.348-0.777,0.777-0.777
		c0.429,0,0.777,0.348,0.777,0.777v4.686C10.28,11.226,9.932,11.574,9.502,11.574z"/>
</g>
</svg>
