<?xml version="1.0" encoding="utf-8"?>
<!-- Generator: Adobe Illustrator 17.0.0, SVG Export Plug-In . SVG Version: 6.00 Build 0)  -->
<!DOCTYPE svg PUBLIC "-//W3C//DTD SVG 1.1//EN" "http://www.w3.org/Graphics/SVG/1.1/DTD/svg11.dtd">
<svg version="1.1" id="Layer_1" xmlns="http://www.w3.org/2000/svg" xmlns:xlink="http://www.w3.org/1999/xlink" x="0px" y="0px"
	 width="57.5px" height="58.25px" viewBox="0 0 57.5 58.25" enable-background="new 0 0 57.5 58.25" xml:space="preserve">
<path fill="#FFFFFF" stroke="#FFFFFF" stroke-miterlimit="10" d="M0,55.167v-5.186c0,0,0.338-3.184,4.172-4.172
	c0,0,6.175-2.255,11.011-4.36c2.501-1.088,3.039-1.742,5.562-2.857c0,0,0.263-1.295,0.168-2.067h1.973c0,0,0.451,0.263,0-2.781
	c0,0-2.405-0.638-2.517-5.487c0,0-1.807,0.608-1.917-2.33c-0.075-1.992-1.616-3.721,0.601-5.149l-1.128-3.044
	c0,0-2.255-12.289,4.228-10.485c-2.735-3.269,15.502-6.538,16.686,3.833c0,0,0.845,5.6,0,9.433c0,0,2.663-0.308,0.883,4.811
	c0,0-0.977,3.683-2.481,2.856c0,0,0.246,4.66-2.122,5.45c0,0,0.168,2.48,0.168,2.649l2.256,0.338c0,0-0.339,2.03,0.056,2.255
	c0,0,2.674,1.832,5.862,2.65c6.145,1.577,13.416,4.284,13.416,6.652c0,0,0.62,3.157,0.62,6.99C57.5,55.167,0,55.167,0,55.167z"/>
</svg>
