<?xml version="1.0" encoding="utf-8"?>
<!-- Generator: Adobe Illustrator 17.0.0, SVG Export Plug-In . SVG Version: 6.00 Build 0)  -->
<!DOCTYPE svg PUBLIC "-//W3C//DTD SVG 1.1//EN" "http://www.w3.org/Graphics/SVG/1.1/DTD/svg11.dtd">
<svg version="1.1" id="Calque_1" xmlns="http://www.w3.org/2000/svg" xmlns:xlink="http://www.w3.org/1999/xlink" x="0px" y="0px"
	 width="44.5px" height="44.5px" viewBox="0 0 44.5 44.5" enable-background="new 0 0 44.5 44.5" xml:space="preserve">
<g id="Captions">
</g>
<g id="Your_Icon">
	<path fill="#D34848" d="M21.852,10.722c0,0-2.487-6.587-9.529-6.587C5.918,4.134,0,7.902,0,17.283
		C0,24.96,5.964,29.82,11.694,33.901c7.576,5.399,6.523,10.33,6.523,10.33s25.495-12.287,25.495-26.948
		c0-9.381-5.933-13.149-12.336-13.149C24.335,4.134,21.852,10.722,21.852,10.722z"/>
</g>
<g>
	
		<line fill="none" stroke="#000000" stroke-width="37.8105" stroke-linejoin="bevel" x1="-171.848" y1="26.741" x2="-71.849" y2="26.741"/>
	
		<line fill="none" stroke="#000000" stroke-width="37.8105" stroke-linejoin="bevel" x1="-171.848" y1="58.992" x2="-71.849" y2="58.992"/>
	
		<line fill="none" stroke="#000000" stroke-width="37.8105" stroke-linejoin="bevel" x1="-154.039" y1="26.741" x2="-154.039" y2="58.992"/>
	
		<line fill="none" stroke="#000000" stroke-width="37.8105" stroke-linejoin="bevel" x1="-111.5" y1="26.724" x2="-111.5" y2="58.975"/>
	
		<line fill="none" stroke="#000000" stroke-width="37.8105" stroke-linejoin="bevel" x1="-132.801" y1="58.992" x2="-132.801" y2="87.328"/>
	
		<line fill="none" stroke="#000000" stroke-width="37.8105" stroke-linejoin="bevel" x1="-90.02" y1="58.992" x2="-90.02" y2="87.328"/>
	
		<line fill="none" stroke="#000000" stroke-width="37.8105" stroke-linejoin="bevel" x1="-132.801" y1="-1.595" x2="-132.801" y2="26.741"/>
	
		<line fill="none" stroke="#000000" stroke-width="37.8105" stroke-linejoin="bevel" x1="-90.02" y1="-1.595" x2="-90.02" y2="26.741"/>
</g>
</svg>
